<svg width="34" height="34" viewBox="0 0 34 34" fill="none" xmlns="http://www.w3.org/2000/svg">
<path d="M5.92614 32C5.57823 32 5.23033 31.918 4.89823 31.7705C3.66474 31.1805 3.12707 29.6726 3.69637 28.3942L14.7661 3.48106C15.3354 2.20263 16.7903 1.64536 18.0238 2.23541C19.2573 2.82546 19.795 4.33335 19.2257 5.61179L8.15591 30.5249C7.74474 31.4591 6.85916 32 5.92614 32Z" fill="url(#paint0_linear)"/>
<path d="M17 22.1655C8.23907 22.1655 4.04837 17.2977 2.07163 13.2165C0.015814 8.97145 0 4.72639 0 4.54609C0 3.13654 1.09116 2.00562 2.45116 2.00562C3.79535 2.00562 4.90233 3.13654 4.90233 4.54609C4.90233 4.62805 4.94977 7.92247 6.53116 11.1022C8.50791 15.085 12.0344 17.101 17 17.101C21.9656 17.101 25.4921 15.085 27.4688 11.1022C29.0502 7.90608 29.0977 4.57888 29.0977 4.54609C29.0977 3.13654 30.1888 2.00562 31.5488 2.00562C32.9088 2.00562 34 3.15293 34 4.54609C34 4.72639 33.9842 8.97145 31.9284 13.2165C29.9516 17.2977 25.7609 22.1655 17 22.1655Z" fill="#E5E5E5"/>
<path d="M28.0696 32C27.1366 32 26.251 31.4591 25.8399 30.5249L14.7701 5.61179C14.2008 4.33335 14.7385 2.82546 15.972 2.23541C17.2055 1.64536 18.6603 2.20263 19.2296 3.48106L30.2994 28.3942C30.8687 29.6726 30.331 31.1805 29.0975 31.7705C28.7655 31.918 28.4175 32 28.0696 32Z" fill="url(#paint1_linear)"/>
<defs>
<linearGradient id="paint0_linear" x1="11.461" y1="2" x2="11.461" y2="32" gradientUnits="userSpaceOnUse">
<stop stop-color="#FFCB24"/>
<stop offset="1" stop-color="#FF4D00"/>
</linearGradient>
<linearGradient id="paint1_linear" x1="22.5348" y1="2" x2="22.5348" y2="32" gradientUnits="userSpaceOnUse">
<stop stop-color="#FFCB24"/>
<stop offset="1" stop-color="#FF4D00"/>
</linearGradient>
</defs>
</svg>
